<svg width="48" height="48" viewBox="0 0 60 65" fill="none" xmlns="http://www.w3.org/2000/svg">
  <g stroke-width="1.8" stroke-linecap="round">
    
    <g stroke="#1A363E">
      <line x1="15" y1="10" x2="15" y2="25" />
      <line x1="15" y1="25" x2="15" y2="40" />
      <line x1="15" y1="40" x2="15" y2="55" />
      
      <line x1="15" y1="10" x2="30" y2="10" />
      <line x1="15" y1="40" x2="30" y2="40" />
    </g>

    <g stroke="#40A09B">
      <line x1="30" y1="10" x2="42" y2="16" />
      <line x1="42" y1="34" x2="30" y2="40" />
    </g>

    <g stroke="#48C0E4">
      <line x1="42" y1="16" x2="45" y2="25" />
      <line x1="45" y1="25" x2="42" y2="34" />
    </g>

    <g stroke="#40A09B" opacity="0.6">
      <line x1="15" y1="10" x2="25" y2="20" />
      <line x1="15" y1="25" x2="25" y2="20" />
      <line x1="30" y1="10" x2="25" y2="20" />
      <line x1="42" y1="16" x2="25" y2="20" />
      
      <line x1="15" y1="25" x2="30" y2="28" />
      <line x1="15" y1="40" x2="30" y2="28" />
      <line x1="30" y1="40" x2="30" y2="28" />
      <line x1="42" y1="34" x2="30" y2="28" />
    </g>

    <g stroke="#48C0E4" opacity="0.6">
      <line x1="25" y1="20" x2="30" y2="28" />
      <line x1="45" y1="25" x2="30" y2="28" />
    </g>
  </g>

  <circle cx="25" cy="20" r="3.5" fill="#40A09B" />
  <circle cx="30" cy="28" r="4" fill="#1A363E" />

  <circle cx="30" cy="10" r="4" fill="#40A09B" />
  <circle cx="42" cy="16" r="4.5" fill="#48C0E4" />
  <circle cx="45" cy="25" r="4" fill="#48C0E4" />
  <circle cx="42" cy="34" r="4.5" fill="#40A09B" />
  <circle cx="30" cy="40" r="4" fill="#1A363E" />

  <circle cx="15" cy="10" r="4.5" fill="#1A363E" />
  <circle cx="15" cy="25" r="4.5" fill="#1A363E" />
  <circle cx="15" cy="40" r="4.5" fill="#1A363E" />
  <circle cx="15" cy="55" r="4.5" fill="#40A09B" />
</svg>
